<svg xmlns="http://www.w3.org/2000/svg" aria-hidden="true">
  <symbol id="pawn" viewBox="0 0 64 64">
    <g fill="currentColor">
      <circle cx="32" cy="18" r="9" />
      <path d="M24 30h16l4 17H20z" />
      <path d="M17 49h30l5 8H12z" />
    </g>
  </symbol>

  <symbol id="rook" viewBox="0 0 64 64">
    <g fill="currentColor">
      <path d="M17 9h8v8h5V9h8v8h5V9h8v17H17z" />
      <path d="M22 27h20l3 21H19z" />
      <path d="M16 49h32l5 8H11z" />
    </g>
  </symbol>

  <symbol id="knight" viewBox="0 0 64 64">
    <g fill="currentColor">
      <path d="M19 48c2-9 6-15 13-20l-6-6 3-11 17 7c7 7 8 16 3 27l-2 3z" />
      <path d="M14 50h36l5 7H9z" />
      <circle cx="38" cy="24" r="2.2" fill="#5f7f5b" />
    </g>
  </symbol>

  <symbol id="bishop" viewBox="0 0 64 64">
    <g fill="currentColor">
      <circle cx="32" cy="11" r="5" />
      <path d="M32 17c10 7 14 16 10 28H22c-4-12 0-21 10-28z" />
      <path d="M36 19 25 40h5l10-18z" fill="#5f7f5b" opacity=".85" />
      <path d="M17 48h30l5 9H12z" />
    </g>
  </symbol>

  <symbol id="queen" viewBox="0 0 64 64">
    <g fill="currentColor">
      <circle cx="15" cy="18" r="5" />
      <circle cx="27" cy="11" r="5" />
      <circle cx="37" cy="11" r="5" />
      <circle cx="49" cy="18" r="5" />
      <path d="M15 24h34l-7 24H22z" />
      <path d="M17 49h30l5 8H12z" />
    </g>
  </symbol>

  <symbol id="king" viewBox="0 0 64 64">
    <g fill="currentColor">
      <path d="M28 8h8v8h8v7h-8v9h-8v-9h-8v-7h8z" />
      <path d="M22 34c2-7 18-7 20 0l3 14H19z" />
      <path d="M16 49h32l5 8H11z" />
    </g>
  </symbol>
</svg>
